<?xml version="1.0" standalone="no"?>
<!DOCTYPE svg PUBLIC "-//W3C//DTD SVG 20010904//EN"
 "http://www.w3.org/TR/2001/REC-SVG-20010904/DTD/svg10.dtd">
<svg version="1.0" xmlns="http://www.w3.org/2000/svg"
 width="160.000000pt" height="160.000000pt" viewBox="0 0 160.000000 160.000000"
 preserveAspectRatio="xMidYMid meet">

<g transform="translate(0.000000,160.000000) scale(0.100000,-0.100000)"
fill="#000000" stroke="none">
<path d="M765 1373 c-41 -9 -439 -249 -459 -276 -20 -27 -21 -40 -21 -297 0
-256 1 -270 21 -297 12 -16 110 -80 235 -152 187 -109 220 -125 259 -125 39 0
71 15 259 125 126 73 223 136 235 152 20 27 21 41 21 297 0 256 -1 270 -21
297 -27 36 -427 270 -474 276 -19 3 -44 3 -55 0z m284 -152 c186 -107 234
-141 201 -141 -21 0 -406 -219 -431 -246 l-24 -26 0 -277 c0 -273 0 -278 -20
-273 -11 3 -113 58 -227 124 -172 99 -209 124 -222 152 -24 50 -24 482 0 532
14 28 49 53 223 152 113 66 213 122 221 125 33 13 81 -8 279 -122z m-61 -496
c6 0 12 -3 12 -7 0 -5 0 -15 0 -23 0 -8 -8 -15 -18 -15 -23 0 -56 -35 -47 -49
3 -6 15 -11 26 -11 10 0 28 -9 40 -21 23 -23 20 -55 -9 -99 -9 -14 -19 -36
-22 -49 -6 -28 -30 -41 -30 -17 0 10 -9 16 -25 16 -39 0 -30 27 17 47 15 7 32
21 38 33 9 17 7 22 -17 31 -15 6 -35 14 -43 19 -25 12 -23 53 5 93 14 21 25
46 25 57 0 23 23 32 30 11 3 -9 11 -16 18 -16z m152 -215 c0 -9 -70 -50 -85
-50 -15 0 9 22 43 40 44 23 42 22 42 10z"/>
<path d="M360 995 c0 -15 4 -24 10 -20 6 3 10 12 10 20 0 8 -4 17 -10 20 -6 4
-10 -5 -10 -20z"/>
<path d="M360 920 c0 -18 4 -29 10 -25 6 3 10 15 10 25 0 10 -4 22 -10 25 -6
4 -10 -7 -10 -25z"/>
<path d="M360 715 c0 -156 0 -156 26 -180 15 -14 34 -25 43 -25 13 1 12 3 -4
15 -45 33 -45 31 -45 185 0 88 -4 151 -10 155 -7 4 -10 -48 -10 -150z"/>
<path d="M460 495 c0 -8 172 -106 182 -103 5 2 -31 27 -81 56 -87 50 -101 57
-101 47z"/>
<path d="M670 371 c0 -5 7 -12 16 -15 24 -9 28 -7 14 9 -14 17 -30 20 -30 6z"/>
</g>
</svg>
