<?xml version="1.0" standalone="no"?>
<!DOCTYPE svg PUBLIC "-//W3C//DTD SVG 20010904//EN"
 "http://www.w3.org/TR/2001/REC-SVG-20010904/DTD/svg10.dtd">
<svg version="1.0" xmlns="http://www.w3.org/2000/svg"
 width="225.000000pt" height="225.000000pt" viewBox="0 0 225.000000 225.000000"
 preserveAspectRatio="xMidYMid meet">

<g transform="translate(0.000000,225.000000) scale(0.100000,-0.100000)"
fill="#000000" stroke="none">
<path d="M518 2039 c-25 -14 -22 -39 8 -71 l27 -27 -36 -32 c-30 -27 -35 -36
-30 -61 6 -32 -18 -68 -47 -68 -24 0 -43 -26 -37 -50 4 -15 -2 -24 -22 -34
-49 -26 -64 -87 -35 -154 8 -20 31 -96 49 -168 38 -146 82 -255 149 -371 160
-276 371 -432 658 -488 178 -35 493 -29 619 11 26 8 62 14 80 14 33 -1 100 13
147 31 17 7 22 16 20 32 -3 20 -10 23 -78 28 -41 3 -83 2 -93 -3 -12 -6 -30
-6 -49 1 -17 6 -48 11 -69 11 -44 0 -46 5 -19 40 25 32 25 50 0 50 -26 0 -72
-29 -64 -41 3 -5 0 -9 -7 -9 -7 0 -21 -8 -31 -17 -17 -15 -23 -15 -93 1 -152
36 -307 130 -405 248 -149 178 -184 285 -208 630 -11 155 -4 164 91 132 26 -9
55 -13 65 -9 14 6 13 9 -11 17 -17 6 -26 16 -25 26 2 11 -16 23 -62 40 -36 13
-78 31 -95 39 -16 9 -42 22 -57 30 -14 7 -28 20 -31 27 -3 8 -25 17 -49 21
-60 10 -78 22 -78 50 0 22 -5 24 -52 27 l-53 3 0 43 c0 56 -32 78 -77 51z m51
-8 c7 -5 11 -14 7 -20 -9 -14 -56 -10 -56 5 0 23 24 31 49 15z m71 -111 c0 -5
-8 -10 -17 -10 -15 0 -16 2 -3 10 19 12 20 12 20 0z m51 -72 c-1 -5 -1 -15 -1
-23 0 -8 -6 -15 -14 -15 -18 0 -58 49 -50 61 6 10 66 -12 65 -23z m-61 -17 c0
-5 -18 -11 -40 -13 -40 -4 -55 7 -22 15 31 8 62 7 62 -2z m133 -37 c3 -18 1
-24 -9 -20 -9 3 -14 -2 -14 -14 0 -27 -25 -25 -45 3 -10 14 -18 18 -23 11 -4
-7 -23 -9 -52 -5 l-45 7 85 21 c47 11 88 21 91 22 4 0 9 -11 12 -25z m-213
-34 c-8 -5 -19 -10 -25 -10 -5 0 -3 5 5 10 8 5 20 10 25 10 6 0 3 -5 -5 -10z
m427 -16 c11 -29 -37 -62 -121 -84 -44 -11 -98 -20 -120 -20 -25 0 -66 -12
-104 -30 -65 -31 -92 -37 -92 -21 0 14 -43 0 -56 -18 -10 -13 -15 -13 -39 3
-18 12 -25 24 -22 37 3 12 0 19 -8 19 -18 0 -26 -14 -27 -50 -1 -32 -12 -40
-22 -14 -17 44 5 74 67 89 21 6 27 4 27 -9 0 -17 29 -36 55 -36 12 0 15 5 9
23 -4 12 -12 25 -18 29 -12 8 -11 9 99 38 207 57 225 59 225 30 0 -11 4 -20 9
-20 15 0 23 18 11 25 -25 16 -5 25 55 25 51 0 67 -4 72 -16z m-517 -14 c-8 -5
-19 -10 -25 -10 -5 0 -3 5 5 10 8 5 20 10 25 10 6 0 3 -5 -5 -10z m477 -234
c6 -82 14 -158 17 -171 4 -15 1 -25 -9 -29 -8 -3 -15 -13 -15 -23 0 -15 2 -16
10 -3 5 8 12 11 16 7 15 -14 55 -190 46 -199 -10 -10 25 -51 52 -61 9 -4 31
-30 50 -59 19 -29 46 -66 60 -82 14 -16 26 -34 26 -41 0 -21 54 -64 120 -95
36 -17 80 -42 99 -55 19 -14 47 -25 62 -25 16 0 29 -4 29 -10 0 -5 20 -15 45
-21 46 -12 56 -23 31 -32 -16 -6 -92 12 -150 37 -46 19 -107 21 -125 3 -12
-10 -13 -9 -7 7 7 19 6 19 -14 1 -19 -18 -21 -18 -40 0 -12 10 -30 19 -41 20
-24 2 -39 22 -32 41 3 8 -8 15 -34 19 -21 3 -48 10 -60 15 -27 11 -32 43 -5
38 9 -2 16 -9 15 -16 -3 -13 39 -27 59 -19 19 6 -58 77 -113 104 -24 12 -71
34 -104 48 -33 15 -55 29 -48 32 6 2 25 -3 42 -11 38 -20 51 -20 51 1 0 22
-29 53 -50 53 -9 0 -27 11 -40 25 l-23 25 21 0 c31 0 29 40 -4 71 -25 23 -26
23 -15 2 16 -31 14 -39 -11 -40 -17 -2 -19 0 -9 6 8 5 11 16 8 25 -9 23 -37
32 -48 15 -7 -12 -9 -12 -9 0 0 7 -6 11 -14 8 -18 -7 -36 12 -36 39 0 12 -8
28 -17 35 -15 12 -16 12 -10 -4 4 -10 7 -24 7 -31 0 -7 9 -23 20 -36 19 -22
26 -40 15 -40 -15 0 -111 55 -122 69 -16 23 -6 32 23 21 14 -6 31 -10 37 -10
14 0 15 38 3 58 -5 8 0 11 15 9 27 -3 33 12 13 38 -12 16 -18 18 -34 7 -28
-17 -30 -16 -30 19 0 17 -4 28 -10 24 -5 -3 -10 -17 -10 -31 0 -13 -5 -24 -12
-24 -6 0 1 -13 16 -29 23 -24 25 -29 11 -35 -27 -10 -35 -7 -35 14 0 11 -9 29
-20 40 -12 12 -18 25 -15 30 3 4 -6 17 -20 28 l-24 19 23 22 c21 19 24 20 36
6 10 -12 10 -19 2 -27 -8 -8 -8 -17 0 -32 12 -21 12 -21 18 4 4 14 3 35 -1 48
-5 13 -5 22 1 22 6 0 10 -4 10 -10 0 -5 7 -10 15 -10 18 0 20 21 4 37 -9 9 -6
10 12 6 24 -5 24 -5 4 10 -22 18 -36 21 -34 10 3 -20 -2 -34 -11 -28 -5 3 -10
1 -10 -5 0 -11 -49 -3 -64 11 -16 15 16 60 46 66 38 7 42 17 23 52 -16 33 -15
36 32 45 17 4 37 14 44 22 6 8 20 14 30 14 11 0 19 5 19 11 0 7 13 10 35 7 26
-3 32 -1 24 9 -8 9 -4 14 18 19 15 3 42 10 58 14 17 4 35 7 40 6 6 -2 15 -69
22 -150z m-344 9 c1 -5 -9 -12 -22 -13 -13 -2 -21 0 -17 6 3 6 0 13 -6 16 -7
3 0 4 15 3 15 -1 29 -6 30 -12z m-88 -15 c-3 -5 -10 -10 -16 -10 -5 0 -9 5 -9
10 0 6 7 10 16 10 8 0 12 -4 9 -10z m5 -70 c0 -5 -4 -10 -9 -10 -6 0 -13 5
-16 10 -3 6 1 10 9 10 9 0 16 -4 16 -10z m-70 -30 c0 -5 -2 -10 -4 -10 -3 0
-8 5 -11 10 -3 6 -1 10 4 10 6 0 11 -4 11 -10z m60 0 c0 -5 -2 -10 -4 -10 -3
0 -8 5 -11 10 -3 6 -1 10 4 10 6 0 11 -4 11 -10z m-16 -127 c2 -15 11 -45 20
-67 19 -45 19 -49 6 -41 -28 18 15 -62 84 -155 31 -41 56 -81 56 -88 0 -12
134 -148 186 -189 27 -21 28 -22 7 -23 -30 0 -136 94 -180 160 -20 30 -58 87
-84 125 -43 65 -99 166 -99 180 0 4 5 3 11 -1 7 -4 10 -3 8 2 -3 5 -19 40 -37
78 -34 73 -41 102 -17 70 13 -18 14 -18 9 6 -5 25 -5 25 11 -2 8 -15 17 -40
19 -55z m316 -229 c2 -3 -1 -9 -9 -13 -19 -12 -19 -13 17 -61 17 -24 32 -48
32 -53 0 -9 -86 37 -105 56 -7 7 -5 7 4 2 7 -4 3 7 -10 24 -24 32 -24 33 -4
47 18 13 60 12 75 -2z m100 -154 c8 -5 11 -10 5 -10 -5 0 -17 5 -25 10 -8 5
-10 10 -5 10 6 0 17 -5 25 -10z m-22 -31 c12 -5 22 -14 22 -20 0 -15 -84 -6
-105 11 -35 29 14 35 83 9z m89 -27 c-19 -4 -57 15 -57 28 0 5 16 2 36 -8 23
-11 31 -18 21 -20z m33 22 l25 -15 -30 6 c-16 4 -34 11 -39 16 -16 15 16 10
44 -7z m-15 -52 c-3 -3 -11 0 -18 7 -9 10 -8 11 6 5 10 -3 15 -9 12 -12z m12
-48 c-7 -7 -37 7 -37 17 0 6 9 5 21 -1 11 -7 19 -14 16 -16z m13 -125 c38 -18
57 -23 62 -15 5 7 8 5 8 -6 0 -10 6 -18 13 -19 96 -6 119 -9 134 -19 15 -9 9
-10 -27 -6 -37 4 -41 4 -20 -5 14 -6 108 -15 209 -22 131 -8 176 -13 160 -20
-29 -11 -189 -2 -323 18 -97 15 -291 82 -291 101 0 5 -4 15 -8 21 -10 15 3 11
83 -28z m378 -6 c-2 -9 -13 -17 -25 -18 -26 -2 -29 5 -11 23 18 18 40 15 36
-5z m39 -13 c-1 -11 -5 -20 -9 -20 -11 0 -20 19 -13 30 11 17 24 11 22 -10z
m353 10 c17 -5 -1 -8 -58 -9 -53 -1 -81 3 -77 9 7 12 99 12 135 0z m238 -7
c-10 -2 -28 -2 -40 0 -13 2 -5 4 17 4 22 1 32 -1 23 -4z m-548 -7 c0 -3 -4 -8
-10 -11 -5 -3 -10 -1 -10 4 0 6 5 11 10 11 6 0 10 -2 10 -4z"/>
<path d="M875 1730 c-3 -6 1 -7 9 -4 18 7 21 14 7 14 -6 0 -13 -4 -16 -10z"/>
<path d="M703 1703 c9 -2 25 -2 35 0 9 3 1 5 -18 5 -19 0 -27 -2 -17 -5z"/>
<path d="M610 1670 c0 -6 7 -10 15 -10 8 0 15 2 15 4 0 2 -7 6 -15 10 -8 3
-15 1 -15 -4z"/>
<path d="M584 1635 c25 -19 37 -19 30 0 -4 8 -16 15 -28 15 -21 -1 -21 -1 -2
-15z"/>
<path d="M885 1539 c-4 -18 -3 -35 4 -42 13 -13 12 -14 15 36 3 45 -10 49 -19
6z"/>
<path d="M690 1476 c0 -8 9 -20 21 -26 19 -11 20 -10 10 9 -15 27 -31 36 -31
17z"/>
<path d="M650 1429 c0 -11 23 -26 50 -33 l25 -7 -24 19 c-18 14 -20 21 -10 24
8 3 2 5 -13 4 -16 0 -28 -4 -28 -7z"/>
<path d="M858 1344 c-11 -11 -10 -39 4 -69 16 -35 28 -31 28 10 0 19 -4 35 -9
35 -5 0 -11 7 -13 16 -2 9 -6 12 -10 8z"/>
<path d="M720 1323 c0 -26 34 -83 49 -81 29 5 30 21 4 55 -28 36 -42 38 -23 4
6 -12 8 -21 6 -21 -3 0 -12 12 -20 28 -8 15 -15 22 -16 15z"/>
<path d="M1110 879 c7 -11 14 -19 16 -16 7 7 -7 37 -17 37 -6 0 -5 -9 1 -21z"/>
</g>
</svg>
