<?xml version="1.0" standalone="no"?>
<!DOCTYPE svg PUBLIC "-//W3C//DTD SVG 20010904//EN"
 "http://www.w3.org/TR/2001/REC-SVG-20010904/DTD/svg10.dtd">
<svg version="1.0" xmlns="http://www.w3.org/2000/svg"
 width="512.000000pt" height="512.000000pt" viewBox="0 0 512.000000 512.000000"
 preserveAspectRatio="xMidYMid meet">

<g transform="translate(0.000000,512.000000) scale(0.100000,-0.100000)"
fill="#000000" stroke="none">
<path d="M1605 4796 c-61 -27 -77 -58 -166 -324 l-86 -257 -499 -5 c-489 -5
-500 -6 -555 -28 -120 -48 -199 -120 -250 -227 -45 -95 -50 -146 -47 -494 3
-302 4 -321 23 -348 15 -21 237 -136 929 -483 l908 -455 26 35 c71 95 150 151
261 184 81 24 741 24 822 0 111 -33 190 -89 261 -184 l26 -35 908 455 c692
347 914 462 929 483 19 27 20 46 23 348 3 348 -2 399 -47 494 -51 107 -130
179 -250 227 -55 22 -66 23 -555 28 l-499 5 -86 257 c-90 268 -105 297 -168
324 -47 20 -1863 20 -1908 0z m1792 -421 c24 -71 46 -138 49 -147 5 -17 -42
-18 -885 -18 -490 0 -891 1 -891 3 0 3 86 261 95 285 3 10 168 12 796 10 l792
-3 44 -130z"/>
<path d="M150 1711 c0 -624 4 -998 10 -1032 34 -180 179 -325 359 -359 74 -14
4008 -14 4082 0 180 34 326 180 359 360 6 35 9 406 8 1033 l-3 978 -833 -415
c-533 -266 -835 -422 -838 -433 -57 -168 -184 -288 -342 -322 -33 -7 -179 -11
-392 -11 -213 0 -359 4 -392 11 -158 34 -286 154 -341 321 -5 15 -1287 665
-1584 804 l-93 43 0 -978z"/>
<path d="M2188 2089 c-43 -22 -78 -81 -78 -129 0 -50 35 -107 80 -130 37 -19
58 -20 370 -20 312 0 333 1 370 20 45 23 80 80 80 130 0 50 -35 107 -80 130
-37 19 -58 20 -372 20 -312 -1 -335 -2 -370 -21z"/>
</g>
</svg>
